HIERARCHY
ROOT Hips
{
	OFFSET 0.000000 0.000000 0.000000
	CHANNELS 6 Xposition Yposition Zposition Xrotation Yrotation Zrotation
	JOINT LeftUpLeg_virtual
	{
		OFFSET 0.000000 0.000000 0.000000
		CHANNELS 3 Xrotation Yrotation Zrotation
		JOINT LeftUpLeg
		{
			OFFSET 11.394100 -6.187798 -0.413800
			CHANNELS 3 Xrotation Yrotation Zrotation
			JOINT LeftLeg
			{
				OFFSET 0.430247 -32.302673 3.732800
				CHANNELS 3 Xrotation Yrotation Zrotation
				JOINT LeftFoot
				{
					OFFSET -0.430247 -48.264931 -6.423300
					CHANNELS 3 Xrotation Yrotation Zrotation
					JOINT LeftToeBase
					{
						OFFSET 4.230900 -16.068199 23.438400
						CHANNELS 3 Xrotation Yrotation Zrotation
						JOINT LeftToe_End
						{
							OFFSET 4.510700 0.695400 19.974600
							CHANNELS 3 Xrotation Yrotation Zrotation
							End Site
							{
								OFFSET 0 0 0
							}
						}
					}
				}
			}
		}
	}
	JOINT RightUpLeg_virtual
	{
		OFFSET 0.000000 0.000000 0.000000
		CHANNELS 3 Xrotation Yrotation Zrotation
		JOINT RightUpLeg
		{
			OFFSET -11.333700 -6.187798 -0.413800
			CHANNELS 3 Xrotation Yrotation Zrotation
			JOINT RightLeg
			{
				OFFSET -0.430392 -32.302628 3.733000
				CHANNELS 3 Xrotation Yrotation Zrotation
				JOINT RightFoot
				{
					OFFSET 0.430392 -48.264973 -6.423500
					CHANNELS 3 Xrotation Yrotation Zrotation
					JOINT RightToeBase
					{
						OFFSET -4.230900 -16.068199 23.438400
						CHANNELS 3 Xrotation Yrotation Zrotation
						JOINT RightToe_End
						{
							OFFSET -4.510700 0.695400 19.974600
							CHANNELS 3 Xrotation Yrotation Zrotation
							End Site
							{
								OFFSET 0 0 0
							}
						}
					}
				}
			}
		}
	}
	JOINT Spine_virtual
	{
		OFFSET 0.000000 0.000000 0.000000
		CHANNELS 3 Xrotation Yrotation Zrotation
		JOINT Spine
		{
			OFFSET -0.002400 12.777504 0.315300
			CHANNELS 3 Xrotation Yrotation Zrotation
			JOINT Spine1
			{
				OFFSET -0.002067 5.816869 0.032633
				CHANNELS 3 Xrotation Yrotation Zrotation
				JOINT Spine1_split
				{
					OFFSET -0.002067 5.816869 0.032633
					CHANNELS 3 Xrotation Yrotation Zrotation
					JOINT Spine2
					{
						OFFSET -0.002067 5.816869 0.032633
						CHANNELS 3 Xrotation Yrotation Zrotation
						JOINT Neck_virtual
						{
							OFFSET 0.000000 0.000000 0.000000
							CHANNELS 3 Xrotation Yrotation Zrotation
							JOINT Neck
							{
								OFFSET -0.003700 21.199493 -0.826900
								CHANNELS 3 Xrotation Yrotation Zrotation
								JOINT Head
								{
									OFFSET 0.000000 20.442200 4.834800
									CHANNELS 3 Xrotation Yrotation Zrotation
									JOINT HeadTop_End
									{
										OFFSET 0.000000 34.668396 4.968400
										CHANNELS 3 Xrotation Yrotation Zrotation
										End Site
										{
											OFFSET 0 0 0
										}
									}
								}
							}
						}
						JOINT LeftShoulder_virtual
						{
							OFFSET 0.000000 0.000000 0.000000
							CHANNELS 3 Xrotation Yrotation Zrotation
							JOINT LeftShoulder
							{
								OFFSET 3.288150 8.794197 -1.372250
								CHANNELS 3 Xrotation Yrotation Zrotation
								JOINT LeftShoulder_split
								{
									OFFSET 3.288150 8.794197 -1.372250
									CHANNELS 3 Xrotation Yrotation Zrotation
									JOINT LeftArm
									{
										OFFSET 11.953299 -2.279007 -0.146200
										CHANNELS 3 Xrotation Yrotation Zrotation
										JOINT LeftForeArm
										{
											OFFSET 18.448900 0.000000 0.000000
											CHANNELS 3 Xrotation Yrotation Zrotation
											JOINT LeftHand
											{
												OFFSET 29.527798 0.000000 0.000000
												CHANNELS 3 Xrotation Yrotation Zrotation
												End Site
												{
													OFFSET 0 0 0
												}
											}
										}
									}
								}
							}
						}
						JOINT RightShoulder_virtual
						{
							OFFSET 0.000000 0.000000 0.000000
							CHANNELS 3 Xrotation Yrotation Zrotation
							JOINT RightShoulder
							{
								OFFSET -3.249400 8.794197 -1.372250
								CHANNELS 3 Xrotation Yrotation Zrotation
								JOINT RightShoulder_split
								{
									OFFSET -3.249400 8.794197 -1.372250
									CHANNELS 3 Xrotation Yrotation Zrotation
									JOINT RightArm
									{
										OFFSET -11.953299 -2.279007 -0.146200
										CHANNELS 3 Xrotation Yrotation Zrotation
										JOINT RightForeArm
										{
											OFFSET -18.448900 0.000000 0.000000
											CHANNELS 3 Xrotation Yrotation Zrotation
											JOINT RightHand
											{
												OFFSET -29.527802 0.000000 0.000000
												CHANNELS 3 Xrotation Yrotation Zrotation
												End Site
												{
													OFFSET 0 0 0
												}
											}
										}
									}
								}
							}
						}
					}
				}
			}
		}
	}
}
MOTION
Frames: 4
Frame Time: 0.03333333
3.174437 69.014694 -47.945843 0.000000 0.000000 0.000000 28.018638 -78.377309 25.934402 -50.907654 -10.912139 28.667185 79.590637 8.402554 -2.327378 -16.170136 6.268109 -32.695023 -6.058955 -3.263640 5.172456 0.000000 0.000000 0.000000 29.751235 -77.466264 28.037307 -62.317785 0.069893 -9.335313 87.654099 9.871777 -10.658415 -28.140659 -1.790165 0.899833 0.378168 1.615139 0.073354 0.000000 0.000000 0.000000 45.594040 -83.072299 44.293080 4.797145 10.206973 -4.745716 10.130404 18.826211 -6.197512 0.720484 -5.599344 1.881036 0.000000 0.000000 0.000000 12.472034 18.179942 -7.755909 -0.788375 1.693572 3.283443 4.729932 2.204058 -6.328443 0.000000 0.000000 0.000000 10.265756 18.468685 -7.042459 4.470031 -4.699139 -0.228088 2.294110 3.425420 0.302480 -75.197739 -30.589900 -60.967293 56.193985 -75.907594 54.904373 0.000000 0.000000 0.000000 9.448734 18.569976 -6.615321 5.563412 8.244623 -2.544886 -2.374017 6.496986 -3.238220 -47.727118 -4.348113 29.298435 -15.532328 43.869298 1.909886 0.000000 0.000000 0.000000 
3.719398 68.146942 -48.476612 0.000000 0.000000 0.000000 38.770951 -74.483882 35.990924 -57.712209 -12.025413 28.695790 80.601929 7.743251 -2.754836 -15.732016 4.677896 -31.120172 -6.320191 -3.597908 5.128011 0.000000 0.000000 0.000000 37.194437 -74.217614 35.643868 -66.213869 0.365843 -10.113018 88.062305 9.050898 -8.962216 -31.226788 -2.050206 0.029546 3.005430 1.024261 -0.272349 0.000000 0.000000 0.000000 50.780855 -78.721332 48.909694 5.242504 9.978771 -4.685435 10.823077 18.143113 -6.429242 0.881099 -6.144126 1.853329 0.000000 0.000000 0.000000 12.394940 17.650168 -7.562304 -0.970271 3.998165 3.834597 2.160518 4.795272 -10.075168 0.000000 0.000000 0.000000 10.589776 17.855100 -7.387938 3.653754 -5.023723 -2.642042 0.573462 2.929297 -0.025253 -60.956023 -21.501900 -55.765151 52.456812 -71.999551 49.810906 0.000000 0.000000 0.000000 9.837527 18.219355 -6.563561 4.899416 8.333639 0.380279 -1.873904 6.518924 -4.044303 -41.915676 -10.416194 30.051456 -15.090659 43.175258 5.307279 0.000000 0.000000 0.000000 
4.074894 68.091530 -48.798710 0.000000 0.000000 0.000000 45.348443 -70.947682 42.398556 -63.612147 -12.261237 28.265983 80.368930 6.918965 -2.926407 -14.681536 3.032384 -28.723978 -6.453849 -3.977463 4.746823 0.000000 0.000000 0.000000 41.190743 -71.045627 40.219514 -69.577648 1.338824 -11.464189 87.729108 8.854343 -7.780192 -31.677673 -1.929238 1.696338 2.919019 0.514216 -1.087337 0.000000 0.000000 0.000000 51.735766 -74.578139 49.584141 5.554988 9.692027 -4.313439 11.396095 17.432825 -6.445245 1.184625 -6.075926 1.581713 0.000000 0.000000 0.000000 12.156350 17.035819 -7.157983 -1.309946 6.101926 4.193956 0.490086 7.399210 -13.615538 0.000000 0.000000 0.000000 10.792302 17.197996 -7.474894 3.108584 -4.598832 -4.268580 -0.428412 2.342871 -0.362606 -47.232285 -11.973556 -52.761476 41.617193 -68.303558 38.753209 0.000000 0.000000 0.000000 10.141583 17.734364 -6.369511 4.399196 8.453353 2.984724 -1.094801 6.951495 -4.289946 -34.599040 -17.650544 32.602399 -14.634275 43.488494 7.835491 0.000000 0.000000 0.000000 
4.328218 68.340523 -49.294750 0.000000 0.000000 0.000000 47.770254 -67.958613 45.259951 -68.405048 -11.808711 27.345813 79.657402 5.828375 -2.725924 -12.923819 1.679343 -26.572398 -6.034409 -4.244179 4.179109 0.000000 0.000000 0.000000 42.994484 -68.391688 42.812719 -71.943749 2.976130 -12.878296 86.945528 9.147863 -7.307018 -30.803361 -1.521655 5.282709 1.194817 0.027074 -1.883308 0.000000 0.000000 0.000000 50.761922 -71.219188 48.705031 5.681037 9.348685 -3.734587 11.837371 16.713225 -6.312016 1.348084 -5.460432 1.435388 0.000000 0.000000 0.000000 11.808455 16.333419 -6.661910 -1.787498 7.870001 4.333177 -0.313232 9.566148 -16.625758 0.000000 0.000000 0.000000 10.931830 16.479139 -7.331877 2.771486 -3.874624 -5.057787 -0.419556 1.559603 -0.646298 -34.518273 -3.786268 -53.090377 29.307034 -64.690812 26.883929 0.000000 0.000000 0.000000 10.456057 17.151510 -6.089646 3.989739 8.896086 5.482624 -0.412953 7.242555 -4.155353 -25.410286 -24.563689 37.364885 -14.030214 43.448035 9.304733 0.000000 0.000000 0.000000 
